<?xml version="1.0" standalone="no"?>
<!DOCTYPE svg PUBLIC "-//W3C//DTD SVG 20010904//EN"
 "http://www.w3.org/TR/2001/REC-SVG-20010904/DTD/svg10.dtd">
<svg version="1.0" xmlns="http://www.w3.org/2000/svg"
 width="220.000000pt" height="220.000000pt" viewBox="0 0 220.000000 220.000000"
 preserveAspectRatio="xMidYMid meet">
<metadata>
Created by potrace 1.14, written by Peter Selinger 2001-2017
</metadata>
<g transform="translate(0.000000,220.000000) scale(0.100000,-0.100000)"
fill="#000000" stroke="none">
<path d="M749 2196 c-2 -2 -22 -6 -44 -9 -245 -33 -486 -220 -595 -462 -61
-135 -63 -154 -67 -595 -3 -469 1 -504 69 -660 99 -226 319 -401 566 -452 83
-17 130 -18 455 -15 311 3 371 6 427 21 286 80 500 296 576 581 17 63 19 111
19 480 0 226 -3 431 -8 456 -9 60 -50 178 -79 232 -115 211 -308 356 -553 413
-32 8 -758 17 -766 10z"/>
</g>
</svg>
