<svg width="25" height="22" viewBox="0 0 25 22" fill="none" xmlns="http://www.w3.org/2000/svg">
<g clip-path="url(#clip0)">
<path d="M15.9488 7.97064C15.6254 7.97064 15.3633 8.20128 15.3633 8.48586V18.2236C15.3633 18.5079 15.6254 18.7388 15.9488 18.7388C16.2721 18.7388 16.5342 18.5079 16.5342 18.2236V8.48586C16.5342 8.20128 16.2721 7.97064 15.9488 7.97064Z" fill="white"/>
<path d="M9.04056 7.97064C8.71717 7.97064 8.45508 8.20128 8.45508 8.48586V18.2236C8.45508 18.5079 8.71717 18.7388 9.04056 18.7388C9.36395 18.7388 9.62604 18.5079 9.62604 18.2236V8.48586C9.62604 8.20128 9.36395 7.97064 9.04056 7.97064Z" fill="white"/>
<path d="M4.00465 6.54955V19.2435C4.00465 19.9938 4.31729 20.6984 4.86343 21.204C5.40705 21.7109 6.1636 21.9987 6.95537 21.9999H18.0328C18.8248 21.9987 19.5813 21.7109 20.1247 21.204C20.6709 20.6984 20.9835 19.9938 20.9835 19.2435V6.54955C22.0692 6.29596 22.7727 5.37299 22.6274 4.39267C22.482 3.41254 21.5331 2.67936 20.4097 2.67916H17.4121V2.03513C17.4155 1.49354 17.1722 0.973492 16.7365 0.590901C16.3008 0.20851 15.709 -0.00442102 15.0935 6.66063e-06H9.89465C9.27921 -0.00442102 8.68733 0.20851 8.25166 0.590901C7.81598 0.973492 7.57264 1.49354 7.57607 2.03513V2.67916H4.57846C3.45508 2.67936 2.50619 3.41254 2.36074 4.39267C2.21551 5.37299 2.919 6.29596 4.00465 6.54955ZM18.0328 20.9695H6.95537C5.95434 20.9695 5.17561 20.2128 5.17561 19.2435V6.59483H19.8126V19.2435C19.8126 20.2128 19.0338 20.9695 18.0328 20.9695ZM8.74703 2.03513C8.74314 1.76685 8.86298 1.50864 9.07933 1.31925C9.29545 1.12987 9.58956 1.02582 9.89465 1.03045H15.0935C15.3986 1.02582 15.6927 1.12987 15.9088 1.31925C16.1252 1.50844 16.245 1.76685 16.2411 2.03513V2.67916H8.74703V2.03513ZM4.57846 3.7096H20.4097C20.9918 3.7096 21.4636 4.12479 21.4636 4.63699C21.4636 5.1492 20.9918 5.56439 20.4097 5.56439H4.57846C3.99642 5.56439 3.5246 5.1492 3.5246 4.63699C3.5246 4.12479 3.99642 3.7096 4.57846 3.7096Z" fill="white"/>
<path d="M12.4937 7.97064C12.1703 7.97064 11.9082 8.20128 11.9082 8.48586V18.2236C11.9082 18.5079 12.1703 18.7388 12.4937 18.7388C12.8171 18.7388 13.0792 18.5079 13.0792 18.2236V8.48586C13.0792 8.20128 12.8171 7.97064 12.4937 7.97064Z" fill="white"/>
</g>
<defs>
<clipPath id="clip0">
<rect width="25" height="22" fill="white"/>
</clipPath>
</defs>
</svg>
