<svg width="84" height="84" viewBox="0 0 84 84" fill="none" xmlns="http://www.w3.org/2000/svg">
<g filter="url(#filter0_d_914_24198)">
<rect x="14" y="9" width="56" height="56" rx="10" fill="#5458F7"/>
</g>
<path d="M52.3098 51.5924H31.8893C31.6906 51.5924 31.4949 51.5353 31.3384 51.4127C30.5027 50.7583 29.1548 49.2832 28.9499 47.3772C27.2994 39.5372 33.2561 34.0871 36.6384 32.2131C36.7804 32.1345 36.9383 32.097 37.1006 32.097H47.0962C47.289 32.097 47.4818 32.1547 47.6423 32.2614C56.3291 38.0316 55.2951 45.2894 55.2951 47.3772C55.2951 48.9052 53.8527 50.5485 52.9286 51.3662C52.7585 51.5166 52.5369 51.5924 52.3098 51.5924Z" fill="white"/>
<path d="M46.7321 28.9355H37.5129C37.1128 28.9355 36.7513 28.6971 36.5937 28.3295L35.8702 26.6411C35.5874 25.9813 36.0714 25.2472 36.7893 25.2472H38.5469C38.8121 25.2472 39.0665 25.1419 39.254 24.9543L40.2489 23.9594C40.4365 23.7719 40.6908 23.6665 40.956 23.6665H42.7621C43.0273 23.6665 43.2817 23.7719 43.4692 23.9594L44.4641 24.9543C44.6517 25.1419 44.906 25.2472 45.1713 25.2472H47.4557C48.1736 25.2472 48.6577 25.9813 48.3749 26.6411L47.6513 28.3295C47.4937 28.6971 47.1322 28.9355 46.7321 28.9355Z" fill="white"/>
<path d="M52.3098 51.5924H31.8893C31.6906 51.5924 31.4949 51.5353 31.3384 51.4127C30.5027 50.7583 29.1548 49.2832 28.9499 47.3772C27.2994 39.5372 33.2561 34.0871 36.6384 32.2131C36.7804 32.1345 36.9383 32.097 37.1006 32.097H47.0962C47.289 32.097 47.4818 32.1547 47.6423 32.2614C56.3291 38.0316 55.2951 45.2894 55.2951 47.3772C55.2951 48.9052 53.8527 50.5485 52.9286 51.3662C52.7585 51.5166 52.5369 51.5924 52.3098 51.5924Z" stroke="white" stroke-width="2"/>
<path d="M46.7321 28.9355H37.5129C37.1128 28.9355 36.7513 28.6971 36.5937 28.3295L35.8702 26.6411C35.5874 25.9813 36.0714 25.2472 36.7893 25.2472H38.5469C38.8121 25.2472 39.0665 25.1419 39.254 24.9543L40.2489 23.9594C40.4365 23.7719 40.6908 23.6665 40.956 23.6665H42.7621C43.0273 23.6665 43.2817 23.7719 43.4692 23.9594L44.4641 24.9543C44.6517 25.1419 44.906 25.2472 45.1713 25.2472H47.4557C48.1736 25.2472 48.6577 25.9813 48.3749 26.6411L47.6513 28.3295C47.4937 28.6971 47.1322 28.9355 46.7321 28.9355Z" stroke="white" stroke-width="2"/>
<path d="M45.952 44.5464C45.952 45.3997 45.6907 46.1037 45.168 46.6584C44.6453 47.2131 43.9307 47.5651 43.024 47.7144C42.9707 47.7357 42.944 47.7677 42.944 47.8104L42.96 48.8504C42.96 48.9037 42.9387 48.9464 42.896 48.9784C42.864 49.0211 42.8213 49.0424 42.768 49.0424H41.168C41.1147 49.0424 41.0667 49.0211 41.024 48.9784C40.992 48.9464 40.976 48.9037 40.976 48.8504L40.992 47.7944C40.992 47.7517 40.9653 47.7197 40.912 47.6984C40.0053 47.5171 39.2907 47.1437 38.768 46.5784C38.256 46.0131 38 45.3037 38 44.4504V44.0984C38 44.0451 38.016 44.0024 38.048 43.9704C38.0907 43.9277 38.1387 43.9064 38.192 43.9064H39.92C39.9733 43.9064 40.016 43.9277 40.048 43.9704C40.0907 44.0024 40.112 44.0451 40.112 44.0984V44.3384C40.112 44.7651 40.2987 45.1277 40.672 45.4264C41.0453 45.7144 41.5573 45.8584 42.208 45.8584C42.752 45.8584 43.152 45.7411 43.408 45.5064C43.6747 45.2611 43.808 44.9624 43.808 44.6104C43.808 44.3544 43.728 44.1411 43.568 43.9704C43.408 43.7891 43.184 43.6344 42.896 43.5064C42.6187 43.3677 42.176 43.1811 41.568 42.9464C40.8747 42.7011 40.2933 42.4504 39.824 42.1944C39.3547 41.9384 38.9547 41.5917 38.624 41.1544C38.304 40.7064 38.144 40.1571 38.144 39.5064C38.144 38.6851 38.3893 38.0077 38.88 37.4744C39.3813 36.9304 40.0533 36.5784 40.896 36.4184C40.9493 36.3971 40.976 36.3651 40.976 36.3224L40.944 35.1544C40.944 35.1011 40.96 35.0584 40.992 35.0264C41.0347 34.9837 41.0827 34.9624 41.136 34.9624H42.736C42.7893 34.9624 42.832 34.9837 42.864 35.0264C42.9067 35.0584 42.928 35.1011 42.928 35.1544L42.912 36.3544C42.912 36.3971 42.9387 36.4291 42.992 36.4504C43.8773 36.6317 44.5813 37.0211 45.104 37.6184C45.6267 38.2051 45.888 38.9251 45.888 39.7784V40.0184C45.888 40.0717 45.8667 40.1197 45.824 40.1624C45.792 40.1944 45.7493 40.2104 45.696 40.2104H43.952C43.8987 40.2104 43.8507 40.1944 43.808 40.1624C43.776 40.1197 43.76 40.0717 43.76 40.0184V39.8904C43.76 39.4424 43.584 39.0637 43.232 38.7544C42.88 38.4344 42.4 38.2744 41.792 38.2744C41.312 38.2744 40.9387 38.3811 40.672 38.5944C40.4053 38.8077 40.272 39.1011 40.272 39.4744C40.272 39.7411 40.3467 39.9651 40.496 40.1464C40.656 40.3277 40.8907 40.4931 41.2 40.6424C41.5093 40.7917 41.9893 40.9837 42.64 41.2184C43.3547 41.4851 43.92 41.7251 44.336 41.9384C44.752 42.1517 45.1253 42.4717 45.456 42.8984C45.7867 43.3251 45.952 43.8744 45.952 44.5464Z" fill="#5458F7"/>
<defs>
<filter id="filter0_d_914_24198" x="0.629273" y="0.977564" width="82.7415" height="82.7415" filterUnits="userSpaceOnUse" color-interpolation-filters="sRGB">
<feFlood flood-opacity="0" result="BackgroundImageFix"/>
<feColorMatrix in="SourceAlpha" type="matrix" values="0 0 0 0 0 0 0 0 0 0 0 0 0 0 0 0 0 0 127 0" result="hardAlpha"/>
<feOffset dy="5.34829"/>
<feGaussianBlur stdDeviation="6.68536"/>
<feColorMatrix type="matrix" values="0 0 0 0 0 0 0 0 0 0 0 0 0 0 0 0 0 0 0.08 0"/>
<feBlend mode="normal" in2="BackgroundImageFix" result="effect1_dropShadow_914_24198"/>
<feBlend mode="normal" in="SourceGraphic" in2="effect1_dropShadow_914_24198" result="shape"/>
</filter>
</defs>
</svg>
