<svg width="24" height="24" viewBox="0 0 24 24" fill="none" xmlns="http://www.w3.org/2000/svg">
<path d="M19.8163 9.63332C21.0205 9.63332 22 10.6123 22 11.8167C22 13.0204 21.0205 14 19.8163 14C18.6121 14 17.6327 13.0204 17.6327 11.8167C17.6327 10.6123 18.6121 9.63332 19.8163 9.63332Z" fill="white"/>
<path d="M12.1227 9.63332C13.3269 9.63332 14.3064 10.6123 14.3064 11.8167C14.3064 13.0204 13.3269 14 12.1227 14C10.9188 14 9.93908 13.0204 9.93908 11.8167C9.93914 10.6123 10.9188 9.63332 12.1227 9.63332Z" fill="white"/>
<path d="M4.18365 9.63332C5.38764 9.63332 6.36731 10.6123 6.36731 11.8167C6.36731 13.0204 5.38769 14 4.18365 14C2.97962 14 2 13.0204 2 11.8167C2 10.6123 2.97962 9.63332 4.18365 9.63332Z" fill="white"/>
</svg>
