<svg width="24" height="24" viewBox="0 0 24 24" fill="none" xmlns="http://www.w3.org/2000/svg">
<path d="M19.6447 22.9444H4.49321C4.29447 22.9444 4.09832 22.8876 3.94421 22.7621C3.31495 22.2497 2.36132 21.168 2.21243 19.783C0.98344 13.9453 5.37816 9.87431 7.92386 8.44069C8.06526 8.36106 8.2249 8.32284 8.38719 8.32284H15.7483C15.9411 8.32284 16.1334 8.38009 16.2936 8.48739C22.7419 12.8083 21.9713 18.2222 21.9713 19.783C21.9713 20.8937 20.9551 22.0857 20.2616 22.7163C20.0936 22.8691 19.8717 22.9444 19.6447 22.9444Z" stroke="white" stroke-width="2"/>
<path d="M15.3843 5.95178H8.7995C8.39947 5.95178 8.03793 5.71338 7.88035 5.34569L7.55197 4.57945C7.26917 3.91958 7.7532 3.18553 8.47111 3.18553H9.30661C9.57183 3.18553 9.82618 3.08018 10.0137 2.89264L10.6135 2.29289C10.801 2.10536 11.0554 2 11.3206 2H12.468C12.7333 2 12.9876 2.10536 13.1751 2.29289L13.7749 2.89264C13.9624 3.08018 14.2168 3.18553 14.482 3.18553H15.7127C16.4306 3.18553 16.9146 3.91959 16.6318 4.57946L16.3034 5.3457C16.1458 5.71338 15.7843 5.95178 15.3843 5.95178Z" stroke="white" stroke-width="2"/>
<path d="M14.964 17.6599C14.964 18.2999 14.768 18.8279 14.376 19.2439C13.984 19.6599 13.448 19.9239 12.768 20.0359C12.728 20.0519 12.708 20.0759 12.708 20.1079L12.72 20.8879C12.72 20.9279 12.704 20.9599 12.672 20.9839C12.648 21.0159 12.616 21.0319 12.576 21.0319H11.376C11.336 21.0319 11.3 21.0159 11.268 20.9839C11.244 20.9599 11.232 20.9279 11.232 20.8879L11.244 20.0959C11.244 20.0639 11.224 20.0399 11.184 20.0239C10.504 19.8879 9.968 19.6079 9.576 19.1839C9.192 18.7599 9 18.2279 9 17.5879V17.3239C9 17.2839 9.012 17.2519 9.036 17.2279C9.068 17.1959 9.104 17.1799 9.144 17.1799H10.44C10.48 17.1799 10.512 17.1959 10.536 17.2279C10.568 17.2519 10.584 17.2839 10.584 17.3239V17.5039C10.584 17.8239 10.724 18.0959 11.004 18.3199C11.284 18.5359 11.668 18.6439 12.156 18.6439C12.564 18.6439 12.864 18.5559 13.056 18.3799C13.256 18.1959 13.356 17.9719 13.356 17.7079C13.356 17.5159 13.296 17.3559 13.176 17.2279C13.056 17.0919 12.888 16.9759 12.672 16.8799C12.464 16.7759 12.132 16.6359 11.676 16.4599C11.156 16.2759 10.72 16.0879 10.368 15.8959C10.016 15.7039 9.716 15.4439 9.468 15.1159C9.228 14.7799 9.108 14.3679 9.108 13.8799C9.108 13.2639 9.292 12.7559 9.66 12.3559C10.036 11.9479 10.54 11.6839 11.172 11.5639C11.212 11.5479 11.232 11.5239 11.232 11.4919L11.208 10.6159C11.208 10.5759 11.22 10.5439 11.244 10.5199C11.276 10.4879 11.312 10.4719 11.352 10.4719H12.552C12.592 10.4719 12.624 10.4879 12.648 10.5199C12.68 10.5439 12.696 10.5759 12.696 10.6159L12.684 11.5159C12.684 11.5479 12.704 11.5719 12.744 11.5879C13.408 11.7239 13.936 12.0159 14.328 12.4639C14.72 12.9039 14.916 13.4439 14.916 14.0839V14.2639C14.916 14.3039 14.9 14.3399 14.868 14.3719C14.844 14.3959 14.812 14.4079 14.772 14.4079H13.464C13.424 14.4079 13.388 14.3959 13.356 14.3719C13.332 14.3399 13.32 14.3039 13.32 14.2639V14.1679C13.32 13.8319 13.188 13.5479 12.924 13.3159C12.66 13.0759 12.3 12.9559 11.844 12.9559C11.484 12.9559 11.204 13.0359 11.004 13.1959C10.804 13.3559 10.704 13.5759 10.704 13.8559C10.704 14.0559 10.76 14.2239 10.872 14.3599C10.992 14.4959 11.168 14.6199 11.4 14.7319C11.632 14.8439 11.992 14.9879 12.48 15.1639C13.016 15.3639 13.44 15.5439 13.752 15.7039C14.064 15.8639 14.344 16.1039 14.592 16.4239C14.84 16.7439 14.964 17.1559 14.964 17.6599Z" fill="white"/>
</svg>
