<svg width="24" height="24" viewBox="0 0 24 24" fill="none" xmlns="http://www.w3.org/2000/svg">
<path d="M14.3667 19.8163C14.3667 21.0205 13.3877 22 12.1833 22C10.9796 22 10 21.0205 10 19.8163C10 18.6121 10.9796 17.6327 12.1833 17.6327C13.3877 17.6327 14.3667 18.6121 14.3667 19.8163Z" fill="white"/>
<path d="M14.3667 12.1227C14.3667 13.3269 13.3877 14.3063 12.1833 14.3063C10.9796 14.3063 10 13.3269 10 12.1227C10 10.9187 10.9796 9.93902 12.1833 9.93902C13.3877 9.93908 14.3667 10.9187 14.3667 12.1227Z" fill="white"/>
<path d="M14.3667 4.18365C14.3667 5.38764 13.3877 6.36731 12.1833 6.36731C10.9796 6.36731 10 5.38769 10 4.18365C10 2.97962 10.9796 2 12.1833 2C13.3877 2 14.3667 2.97962 14.3667 4.18365Z" fill="white"/>
</svg>
