<svg width="24" height="24" viewBox="0 0 24 24" fill="none" xmlns="http://www.w3.org/2000/svg">
<path d="M19.8163 9.63356C21.0205 9.63356 22 10.6125 22 11.8169C22 13.0206 21.0205 14.0002 19.8163 14.0002C18.6121 14.0002 17.6327 13.0207 17.6327 11.8169C17.6327 10.6125 18.6121 9.63356 19.8163 9.63356Z" fill="white"/>
<path d="M12.123 9.63356C13.3272 9.63356 14.3066 10.6125 14.3066 11.8169C14.3066 13.0206 13.3272 14.0002 12.123 14.0002C10.919 14.0002 9.93933 13.0207 9.93933 11.8169C9.93938 10.6125 10.919 9.63356 12.123 9.63356Z" fill="white"/>
<path d="M4.18353 9.63356C5.38752 9.63356 6.36719 10.6125 6.36719 11.8169C6.36719 13.0206 5.38757 14.0002 4.18353 14.0002C2.9795 14.0002 1.99988 13.0207 1.99988 11.8169C1.99988 10.6125 2.9795 9.63356 4.18353 9.63356Z" fill="white"/>
</svg>
