<svg width="22" height="22" viewBox="0 0 22 22" fill="none" xmlns="http://www.w3.org/2000/svg">
<path d="M1.83301 20.1666V1.83331" stroke="white" stroke-width="2" stroke-linecap="round" stroke-linejoin="round"/>
<path d="M20.166 1.83331V20.1666" stroke="white" stroke-width="2" stroke-linecap="round" stroke-linejoin="round"/>
<path d="M6.72168 1.83331H15.2772V9.16665H6.72168V1.83331Z" stroke="white" stroke-width="2" stroke-linecap="round" stroke-linejoin="round"/>
<path d="M6.72168 12.8333H15.2772V20.1666H6.72168V12.8333Z" stroke="white" stroke-width="2" stroke-linecap="round" stroke-linejoin="round"/>
<path d="M4.58279 3.66664C4.58279 3.72707 4.56487 3.78615 4.5313 3.8364C4.49772 3.88665 4.45 3.92581 4.39417 3.94894C4.33833 3.97206 4.2769 3.97811 4.21762 3.96632C4.15835 3.95453 4.10391 3.92543 4.06117 3.8827C4.01844 3.83997 3.98934 3.78552 3.97755 3.72625C3.96576 3.66698 3.97181 3.60554 3.99494 3.54971C4.01807 3.49388 4.05723 3.44615 4.10748 3.41258C4.15773 3.379 4.2168 3.36108 4.27724 3.36108C4.35827 3.36108 4.43599 3.39328 4.4933 3.45058C4.5506 3.50788 4.58279 3.5856 4.58279 3.66664Z" stroke="white" stroke-width="2" stroke-linecap="round" stroke-linejoin="round"/>
<path d="M4.58279 8.55556C4.58279 8.61599 4.56487 8.67506 4.5313 8.72531C4.49772 8.77556 4.45 8.81472 4.39417 8.83785C4.33833 8.86098 4.2769 8.86703 4.21762 8.85524C4.15835 8.84345 4.10391 8.81435 4.06117 8.77162C4.01844 8.72888 3.98934 8.67444 3.97755 8.61517C3.96576 8.55589 3.97181 8.49446 3.99494 8.43862C4.01807 8.38279 4.05723 8.33507 4.10748 8.3015C4.15773 8.26792 4.2168 8.25 4.27724 8.25C4.35827 8.25 4.43599 8.28219 4.4933 8.33949C4.5506 8.3968 4.58279 8.47452 4.58279 8.55556Z" stroke="white" stroke-width="2" stroke-linecap="round" stroke-linejoin="round"/>
<path d="M4.58279 13.4444C4.58279 13.5048 4.56487 13.5639 4.5313 13.6142C4.49772 13.6644 4.45 13.7036 4.39417 13.7267C4.33833 13.7498 4.2769 13.7559 4.21762 13.7441C4.15835 13.7323 4.10391 13.7032 4.06117 13.6605C4.01844 13.6177 3.98934 13.5633 3.97755 13.504C3.96576 13.4447 3.97181 13.3833 3.99494 13.3275C4.01807 13.2716 4.05723 13.2239 4.10748 13.1904C4.15773 13.1568 4.2168 13.1389 4.27724 13.1389C4.35827 13.1389 4.43599 13.171 4.4933 13.2283C4.5506 13.2857 4.58279 13.3634 4.58279 13.4444Z" stroke="white" stroke-width="2" stroke-linecap="round" stroke-linejoin="round"/>
<path d="M4.58279 18.3333C4.58279 18.3938 4.56487 18.4528 4.5313 18.5031C4.49772 18.5533 4.45 18.5925 4.39417 18.6156C4.33833 18.6388 4.2769 18.6448 4.21762 18.633C4.15835 18.6212 4.10391 18.5921 4.06117 18.5494C4.01844 18.5067 3.98934 18.4522 3.97755 18.3929C3.96576 18.3337 3.97181 18.2722 3.99494 18.2164C4.01807 18.1606 4.05723 18.1128 4.10748 18.0793C4.15773 18.0457 4.2168 18.0278 4.27724 18.0278C4.35827 18.0278 4.43599 18.06 4.4933 18.1173C4.5506 18.1746 4.58279 18.2523 4.58279 18.3333Z" stroke="white" stroke-width="2" stroke-linecap="round" stroke-linejoin="round"/>
<path d="M18.0271 3.66664C18.0271 3.72707 18.0092 3.78615 17.9756 3.8364C17.9421 3.88665 17.8943 3.92581 17.8385 3.94894C17.7827 3.97206 17.7212 3.97811 17.662 3.96632C17.6027 3.95453 17.5482 3.92543 17.5055 3.8827C17.4628 3.83997 17.4337 3.78552 17.4219 3.72625C17.4101 3.66698 17.4161 3.60554 17.4393 3.54971C17.4624 3.49388 17.5016 3.44615 17.5518 3.41258C17.6021 3.379 17.6611 3.36108 17.7216 3.36108C17.8026 3.36108 17.8803 3.39328 17.9376 3.45058C17.9949 3.50788 18.0271 3.5856 18.0271 3.66664Z" stroke="white" stroke-width="2" stroke-linecap="round" stroke-linejoin="round"/>
<path d="M18.0271 8.55556C18.0271 8.61599 18.0092 8.67506 17.9756 8.72531C17.9421 8.77556 17.8943 8.81472 17.8385 8.83785C17.7827 8.86098 17.7212 8.86703 17.662 8.85524C17.6027 8.84345 17.5482 8.81435 17.5055 8.77162C17.4628 8.72888 17.4337 8.67444 17.4219 8.61517C17.4101 8.55589 17.4161 8.49446 17.4393 8.43862C17.4624 8.38279 17.5016 8.33507 17.5518 8.3015C17.6021 8.26792 17.6611 8.25 17.7216 8.25C17.8026 8.25 17.8803 8.28219 17.9376 8.33949C17.9949 8.3968 18.0271 8.47452 18.0271 8.55556Z" stroke="white" stroke-width="2" stroke-linecap="round" stroke-linejoin="round"/>
<path d="M18.0271 13.4444C18.0271 13.5048 18.0092 13.5639 17.9756 13.6142C17.9421 13.6644 17.8943 13.7036 17.8385 13.7267C17.7827 13.7498 17.7212 13.7559 17.662 13.7441C17.6027 13.7323 17.5482 13.7032 17.5055 13.6605C17.4628 13.6177 17.4337 13.5633 17.4219 13.504C17.4101 13.4447 17.4161 13.3833 17.4393 13.3275C17.4624 13.2716 17.5016 13.2239 17.5518 13.1904C17.6021 13.1568 17.6611 13.1389 17.7216 13.1389C17.8026 13.1389 17.8803 13.171 17.9376 13.2283C17.9949 13.2857 18.0271 13.3634 18.0271 13.4444Z" stroke="white" stroke-width="2" stroke-linecap="round" stroke-linejoin="round"/>
<path d="M18.0271 18.3333C18.0271 18.3938 18.0092 18.4528 17.9756 18.5031C17.9421 18.5533 17.8943 18.5925 17.8385 18.6156C17.7827 18.6388 17.7212 18.6448 17.662 18.633C17.6027 18.6212 17.5482 18.5921 17.5055 18.5494C17.4628 18.5067 17.4337 18.4522 17.4219 18.3929C17.4101 18.3337 17.4161 18.2722 17.4393 18.2164C17.4624 18.1606 17.5016 18.1128 17.5518 18.0793C17.6021 18.0457 17.6611 18.0278 17.7216 18.0278C17.8026 18.0278 17.8803 18.06 17.9376 18.1173C17.9949 18.1746 18.0271 18.2523 18.0271 18.3333Z" stroke="white" stroke-width="2" stroke-linecap="round" stroke-linejoin="round"/>
</svg>
