<svg width="20" height="20" viewBox="0 0 20 20" fill="none" xmlns="http://www.w3.org/2000/svg">
<path d="M19.2735 18.6264C19.1049 19.0224 18.6479 19.2073 18.2518 19.0404C18.2194 19.0271 16.371 18.2863 14.2627 19.0894C14.2036 19.1119 14.1436 19.126 14.0837 19.1336C12.8156 19.7012 11.4309 20 10.0001 20C7.329 20 4.81769 18.9598 2.92895 17.0711C2.89263 17.0348 2.85723 16.9978 2.82152 16.9611C2.72753 18.0695 2.42159 18.8068 2.39839 18.8609C2.2719 19.1579 1.98305 19.3362 1.6794 19.3362C1.57716 19.3362 1.4734 19.3159 1.37361 19.2735C0.977638 19.1049 0.792853 18.6479 0.959633 18.2516C0.972755 18.2193 1.71373 16.3708 0.910499 14.2625C0.888068 14.2036 0.874183 14.1437 0.866401 14.0839C0.298922 12.8159 0 11.431 0 10C0 7.32895 1.0402 4.81766 2.92895 2.92892C2.96526 2.89261 3.00219 2.85721 3.03896 2.82166C1.9304 2.72766 1.1934 2.42157 1.13923 2.39838C0.742193 2.22931 0.557408 1.77048 0.726629 1.3736C0.89524 0.977631 1.35224 0.792694 1.74837 0.959625C1.78071 0.972748 3.62918 1.71371 5.7375 0.910645C5.7964 0.888062 5.85637 0.874176 5.91618 0.866394C7.1842 0.298767 8.5691 0 10.0001 0C11.9212 0 13.7872 0.546265 15.3967 1.5799C16.0484 1.99829 16.6453 2.48795 17.1786 3.03757C17.2728 1.92993 17.5786 1.19324 17.6016 1.13922C17.7708 0.742188 18.23 0.557556 18.6265 0.726624C19.0225 0.895233 19.2073 1.35208 19.0405 1.74835C19.0274 1.7807 18.2864 3.62915 19.0897 5.73761C19.2432 6.14075 19.0408 6.5921 18.6377 6.74576C18.5461 6.7807 18.4521 6.79718 18.3597 6.79718C18.3514 6.79718 18.3433 6.79642 18.3351 6.79611C18.0374 6.80328 17.7487 6.63971 17.6115 6.35376C16.8025 4.66843 15.4602 3.3284 13.847 2.49893C14.1983 3.05618 14.4729 3.73825 14.5655 4.561C14.6139 4.98978 14.3055 5.37643 13.8768 5.4248C13.847 5.42816 13.8174 5.42984 13.7883 5.42984C13.3959 5.42984 13.0578 5.13489 13.0129 4.73587C12.8781 3.53897 12.1633 2.76276 11.5875 2.32224C10.868 1.772 10.163 1.57074 9.99763 1.5625C6.72841 1.56342 3.88782 3.43338 2.48827 6.15967C3.04751 5.80521 3.73309 5.5278 4.56104 5.43457C4.99027 5.38635 5.37663 5.69473 5.42485 6.1235C5.47322 6.55212 5.16483 6.93893 4.73591 6.98715C3.539 7.12204 2.76278 7.83676 2.32241 8.41263C1.77217 9.13208 1.5709 9.83704 1.56266 10.0024C1.56343 13.2721 3.43402 16.1131 6.16109 17.5124C5.89619 17.0941 5.67448 16.606 5.53959 16.0405C5.43949 15.6209 5.69859 15.1994 6.11836 15.0993C6.53798 14.9992 6.95943 15.2583 7.05953 15.6781C7.30734 16.7174 8.00513 17.3929 8.54697 17.7763C9.22264 18.2547 9.85664 18.43 10.0025 18.4373C13.2719 18.4364 16.1125 16.5666 17.512 13.8402C16.9526 14.1946 16.2671 14.472 15.4391 14.5653C15.4095 14.5686 15.3799 14.5703 15.3508 14.5703C14.9585 14.5703 14.6203 14.2755 14.5753 13.8765C14.5271 13.4477 14.8355 13.0609 15.2642 13.0127C16.4612 12.8778 17.2374 12.1631 17.6779 11.5872C18.2284 10.8672 18.4297 10.1617 18.4376 9.9971C18.4376 9.98306 18.439 9.96948 18.4399 9.95575C18.4405 9.94339 18.4405 9.93088 18.4419 9.91882C18.4433 9.90479 18.446 9.8912 18.4482 9.87747C18.45 9.86542 18.4514 9.85321 18.4538 9.84131C18.4566 9.82773 18.4605 9.81476 18.464 9.80148C18.4671 9.78989 18.4695 9.77798 18.473 9.76654C18.477 9.75388 18.482 9.74182 18.4868 9.72946C18.4909 9.71786 18.4947 9.70612 18.4994 9.69482C18.5045 9.68307 18.5104 9.67194 18.5161 9.66064C18.5214 9.64935 18.5264 9.63776 18.5324 9.62662C18.5385 9.61563 18.5455 9.6051 18.5521 9.59442C18.5585 9.58374 18.5646 9.57275 18.5716 9.56238C18.5785 9.55215 18.5863 9.54285 18.5936 9.53308C18.6012 9.52271 18.6084 9.51218 18.6166 9.50226C18.6241 9.49326 18.6325 9.48486 18.6404 9.47601C18.6493 9.4664 18.6577 9.45618 18.667 9.44687C18.6752 9.43878 18.6842 9.4313 18.6928 9.42337C18.7027 9.41452 18.7121 9.40506 18.7224 9.39667C18.7314 9.38919 18.7411 9.38263 18.7504 9.37561C18.7611 9.36768 18.7715 9.35928 18.7825 9.35181C18.7926 9.34494 18.8032 9.33914 18.8136 9.33289C18.8246 9.32617 18.8354 9.319 18.8469 9.31274C18.8577 9.30695 18.869 9.30206 18.8801 9.29672C18.8917 9.29108 18.9032 9.28497 18.9151 9.27994C18.9268 9.2749 18.939 9.27109 18.9511 9.26666C18.963 9.26239 18.9746 9.25751 18.9868 9.25369C19.0001 9.24957 19.014 9.24667 19.0275 9.24316C19.039 9.24042 19.05 9.23691 19.0616 9.23447C19.0771 9.23126 19.0932 9.22943 19.109 9.22729C19.1189 9.22592 19.1289 9.22379 19.1391 9.22272C19.1653 9.21997 19.1919 9.2186 19.2187 9.2186C19.6503 9.2186 20 9.56848 20 9.99985C20 12.6711 18.9598 15.1822 17.0712 17.0711C17.0349 17.1074 16.9978 17.1428 16.961 17.1785C18.0696 17.2723 18.8068 17.5784 18.8609 17.6015C19.258 17.7707 19.4427 18.2295 19.2735 18.6264Z" fill="#FFF7F7"/>
</svg>
