<svg width="24" height="24" viewBox="0 0 24 24" fill="none" xmlns="http://www.w3.org/2000/svg">
<path d="M19 4H5C3.89543 4 3 4.89543 3 6V20C3 21.1046 3.89543 22 5 22H19C20.1046 22 21 21.1046 21 20V6C21 4.89543 20.1046 4 19 4Z" stroke="white" stroke-width="2" stroke-linecap="round" stroke-linejoin="round"/>
<path d="M16 2V6" stroke="white" stroke-width="2" stroke-linecap="round" stroke-linejoin="round"/>
<path d="M8 2V6" stroke="white" stroke-width="2" stroke-linecap="round" stroke-linejoin="round"/>
<path d="M14 10H20" stroke="white" stroke-width="2" stroke-linecap="round" stroke-linejoin="round"/>
<path d="M14 12.5C14 14.9853 11.9853 17 9.5 17C7.01472 17 5 14.9853 5 12.5C5 10.0147 7.01472 8 9.5 8C11.9853 8 14 10.0147 14 12.5Z" stroke="white" stroke-width="2"/>
<path d="M9.5 10.5V13.125L11 14" stroke="white" stroke-width="2" stroke-linecap="round"/>
</svg>
