<svg
              width="17"
              height="17"
              viewBox="0 0 17 17"
              fill="none"
              xmlns="http://www.w3.org/2000/svg"
            >
              <path
                d="M6.25215 4.88418C6.50117 4.74141 6.80996 4.71816 7.05566 4.89746L11.8369 7.81934C12.0727 7.96543 12.2188 8.22109 12.2188 8.5C12.2188 8.77891 12.0727 9.03457 11.8369 9.18066L7.05566 12.1025C6.80996 12.252 6.50117 12.2586 6.25215 12.1158C5.9998 11.9764 5.84375 11.7107 5.84375 11.4219V5.54824C5.84375 5.28926 5.9998 5.02363 6.25215 4.88418ZM17 8.5C17 13.1949 13.1949 17 8.5 17C3.80508 17 0 13.1949 0 8.5C0 3.80508 3.80508 0 8.5 0C13.1949 0 17 3.80508 17 8.5ZM8.5 1.59375C4.68496 1.59375 1.59375 4.68496 1.59375 8.5C1.59375 12.315 4.68496 15.4062 8.5 15.4062C12.315 15.4062 15.4062 12.315 15.4062 8.5C15.4062 4.68496 12.315 1.59375 8.5 1.59375Z"
                fill="current"
              />
            </svg>