<svg width="24" height="24" viewBox="0 0 24 24" fill="none" xmlns="http://www.w3.org/2000/svg">
<path d="M20.6597 6.99988L18.3392 5.66003L16.9997 3.33979H14.3204L11.9998 1.99994L9.67918 3.33979H6.99988L5.66003 5.66038L3.33985 6.99988V9.67917L2 11.9998L3.33985 14.3204V16.9996L5.66044 18.3395L7.00029 20.6601H9.67958L11.9998 21.9996L14.3204 20.6597H16.9997L18.3396 18.3391L20.6602 16.9993V14.32L22 11.9994L20.6602 9.67883V6.99988H20.6597ZM11.0972 16.0926C10.9108 16.2791 10.6651 16.3697 10.4206 16.3662C10.176 16.3697 9.93039 16.2791 9.74394 16.0926L6.81934 13.168C6.45299 12.8016 6.45299 12.2073 6.81934 11.841L7.59357 11.0667C7.95993 10.7004 8.55425 10.7004 8.92061 11.0667L10.4206 12.5667L15.0787 7.90827C15.4451 7.54191 16.0394 7.54191 16.4057 7.90827L17.18 8.68249C17.5463 9.04885 17.5463 9.64317 17.18 10.0095L11.0972 16.0926Z" fill="white"/>
</svg>
