<svg width="24" height="24" viewBox="0 0 24 24" fill="none" xmlns="http://www.w3.org/2000/svg">
<path d="M4 4V17C4 18.1046 4.89119 19 5.99576 19C9.41944 19 15.0258 19 18.0004 19C19.1049 19 20 18.1046 20 17V9C20 7.89543 19.1048 7 18.0002 7C17.6784 7 17.3392 7 17 7M4 4C4 4.78485 4 5.56969 4.48345 6.35454C4.76165 6.80617 5.29647 7 5.8269 7C7.74886 7 12.6825 7 17 7M4 4H10.5H15C16.1046 4 17 4.89549 17 6.00006C17 6.36765 17 6.72237 17 7" stroke="current" stroke-width="2" stroke-linecap="round" stroke-linejoin="round"/>
<path d="M21 11V15H17C16.4696 15 15.9609 14.7893 15.5858 14.4142C15.2107 14.0391 15 13.5304 15 13C15 12.4696 15.2107 11.9609 15.5858 11.5858C15.9609 11.2107 16.4696 11 17 11H21Z" stroke="current" stroke-width="2" stroke-linecap="round" stroke-linejoin="round"/>
</svg>
