<svg width="20" height="20" viewBox="0 0 20 20" fill="none" xmlns="http://www.w3.org/2000/svg">
<path d="M19.6163 3.66781L10.2034 0.191753C10.0721 0.143276 9.92785 0.143276 9.7966 0.191753L0.383711 3.66781C0.151406 3.77441 0 3.97558 0 4.21855V19.2578C0 19.582 0.262852 19.8449 0.58707 19.8449H2.91945C3.24367 19.8449 3.50652 19.582 3.50652 19.2578C3.50652 18.8351 3.4816 17.3378 3.16062 15.8195C3.00785 15.0967 2.80914 14.478 2.57004 13.9805C2.4732 13.7789 2.36867 13.5955 2.25684 13.4305C2.995 13.3746 3.68984 13.1454 4.32656 12.7462C4.95523 12.3521 5.5143 11.8015 5.98816 11.1098C6.73789 10.0155 7.10109 8.84121 7.21711 7.97179H12.7827C12.8988 8.84121 13.262 10.0155 14.0117 11.1098C14.4856 11.8016 15.0446 12.3521 15.6733 12.7462C16.31 13.1454 17.0048 13.3746 17.743 13.4305C17.6312 13.5955 17.5267 13.7789 17.4298 13.9805C17.1907 14.478 16.992 15.0967 16.8392 15.8195C16.5183 17.3378 16.4933 18.8351 16.4933 19.2578C16.4933 19.582 16.7562 19.8449 17.0804 19.8449H19.4128C19.737 19.8449 19.9998 19.582 19.9998 19.2578V4.21855C20 3.89175 19.7423 3.72 19.6163 3.66781ZM10 1.36832L16.1284 3.63148H3.8716L10 1.36832ZM2.31984 18.6707H1.17418V13.9374C1.51594 14.3587 1.80637 15.0901 2.01191 16.0624C2.22129 17.0528 2.29469 18.0373 2.31984 18.6707ZM1.17418 12.4573V7.97179H3.65039C3.50078 10.8515 2.2466 11.9289 1.17418 12.4573ZM5.01957 10.4462C4.72266 10.8796 4.3077 11.356 3.75988 11.7134C4.4025 10.7431 4.75512 9.50074 4.82562 7.97183H6.02965C5.90691 8.69246 5.58012 9.62804 5.01957 10.4462ZM14.9804 10.4462C14.4199 9.62808 14.0931 8.69246 13.9704 7.97183H15.1744C15.2449 9.50078 15.5975 10.7432 16.2401 11.7134C15.6923 11.356 15.2773 10.8796 14.9804 10.4462ZM18.8258 18.6707H17.6802C17.7053 18.0373 17.7787 17.0528 17.9881 16.0624C18.1936 15.0901 18.4841 14.3587 18.8258 13.9374V18.6707ZM18.8258 12.4573C17.7534 11.9289 16.4992 10.8514 16.3496 7.97179H18.8258V12.4573ZM18.8258 6.79765H1.17418V4.80566H18.8259V6.79765H18.8258Z" fill="current"/>
</svg>
